<svg width="18" height="19" viewBox="0 0 18 19" fill="none" xmlns="http://www.w3.org/2000/svg">
<path d="M9 1.5L7.9588 5.66479C7.75563 6.47748 7.65404 6.88382 7.44247 7.21447C7.25532 7.50694 7.00694 7.75532 6.71447 7.94247C6.38382 8.15404 5.97748 8.25563 5.16479 8.4588L1 9.5L5.16479 10.5412C5.97748 10.7444 6.38382 10.846 6.71447 11.0575C7.00694 11.2447 7.25532 11.4931 7.44247 11.7855C7.65404 12.1162 7.75563 12.5225 7.9588 13.3352L9 17.5L10.0412 13.3352C10.2444 12.5225 10.346 12.1162 10.5575 11.7855C10.7447 11.4931 10.9931 11.2447 11.2855 11.0575C11.6162 10.846 12.0225 10.7444 12.8352 10.5412L17 9.5L12.8352 8.4588C12.0225 8.25563 11.6162 8.15404 11.2855 7.94247C10.9931 7.75532 10.7447 7.50694 10.5575 7.21447C10.346 6.88382 10.2444 6.47748 10.0412 5.66479L9 1.5Z" stroke="black" stroke-width="2" stroke-linecap="round" stroke-linejoin="round"/>
</svg>
