<svg width="18" height="18" viewBox="0 0 18 18" fill="none" xmlns="http://www.w3.org/2000/svg">
<path d="M9 1L7.9588 5.16479C7.75563 5.97748 7.65404 6.38382 7.44247 6.71447C7.25532 7.00694 7.00694 7.25532 6.71447 7.44247C6.38382 7.65404 5.97748 7.75563 5.16479 7.9588L1 9L5.16479 10.0412C5.97748 10.2444 6.38382 10.346 6.71447 10.5575C7.00694 10.7447 7.25532 10.9931 7.44247 11.2855C7.65405 11.6162 7.75563 12.0225 7.9588 12.8352L9 17L10.0412 12.8352C10.2444 12.0225 10.346 11.6162 10.5575 11.2855C10.7447 10.9931 10.9931 10.7447 11.2855 10.5575C11.6162 10.346 12.0225 10.2444 12.8352 10.0412L17 9L12.8352 7.9588C12.0225 7.75563 11.6162 7.65404 11.2855 7.44247C10.9931 7.25532 10.7447 7.00694 10.5575 6.71447C10.346 6.38382 10.2444 5.97748 10.0412 5.16479L9 1Z" stroke="white" stroke-width="2" stroke-linecap="round" stroke-linejoin="round"/>
</svg>
