<svg viewBox="0 0 390 426" fill="none" xmlns="http://www.w3.org/2000/svg">
<path fill-rule="evenodd" clip-rule="evenodd" d="M246.586 82.6624C235.443 78.7416 209.579 80.2932 179.85 106.509C111.603 166.689 42.6987 169.293 7.43521 170.626C4.73401 170.728 1.291 170.513 -1 170.626V89.7581C1.44485 89.6381 1.01736 89.8653 3.5933 89.7581C36.8467 88.373 80.7157 86.5458 127.264 45.4995C170.876 7.04154 226.109 -10.2409 272.879 6.21666C296.952 14.6873 317.152 31.9081 328.732 56.7615C340.084 81.1259 341.68 109.516 335.489 138.937C329.316 168.275 316.783 193.265 304.02 214.256C297.637 224.753 290.961 234.621 284.831 243.552C283.627 245.307 282.453 247.013 281.307 248.678C276.432 255.761 272.061 262.111 267.987 268.422C257.654 284.428 252.86 294.893 251.475 302.966C250.5 308.649 250.763 315.043 257.658 325.178C266.395 338.023 283.208 345.301 312.031 345.055C339.054 344.824 366.699 337.962 386.897 332.949C387.814 332.721 388.716 332.498 389.601 332.278V415.551C388.433 415.84 390.924 415.221 389.601 415.551C370.078 420.43 349.468 425.677 312.707 425.992C274.028 426.322 223.029 417.065 191.733 371.058C173.607 344.412 167.893 316.736 172.632 289.124C176.96 263.902 189.572 241.846 200.984 224.169C205.773 216.75 210.988 209.177 215.905 202.035C216.985 200.466 218.051 198.918 219.094 197.397C225.089 188.662 230.702 180.332 235.856 171.855C246.167 154.898 253.696 138.838 257.22 122.088C260.727 105.421 258.49 95.8689 256.346 91.2662C254.429 87.1526 251.47 84.381 246.586 82.6624Z" fill="#B1ABF4"/>
</svg>
