<svg  viewBox="0 0 125 95" fill="none" xmlns="http://www.w3.org/2000/svg">
<path d="M116.159 42.5116L63.7788 1.73004C63.2265 1.3001 62.4536 1.29744 61.8984 1.72359L8.76172 42.5116" stroke="black" stroke-width="1.53718"/>
<rect x="8.07597" y="38.8194" width="109.009" height="54.8734" rx="3.35026" fill="white"/>
<rect x="8.07597" y="38.8194" width="109.009" height="54.8734" rx="3.35026" stroke="black" stroke-width="1.67513"/>
<path d="M20.9733 58.0542C20.8589 58.0542 20.7767 58.0399 20.7266 58.0113C20.6766 57.9755 20.6515 57.9255 20.6515 57.8611V50.6959C20.6515 50.6316 20.6766 50.5851 20.7266 50.5565C20.7767 50.5207 20.8589 50.5028 20.9733 50.5028H21.0591C21.1807 50.5028 21.2629 50.5207 21.3058 50.5565C21.3559 50.5851 21.3809 50.6316 21.3809 50.6959V53.8709H25.4676V50.6959C25.4676 50.6316 25.4927 50.5851 25.5427 50.5565C25.5928 50.5207 25.675 50.5028 25.7894 50.5028H25.8752C25.9968 50.5028 26.079 50.5207 26.1219 50.5565C26.172 50.5851 26.197 50.6316 26.197 50.6959V57.8611C26.197 57.9255 26.172 57.9755 26.1219 58.0113C26.079 58.0399 25.9968 58.0542 25.8752 58.0542H25.7894C25.675 58.0542 25.5928 58.0399 25.5427 58.0113C25.4927 57.9755 25.4676 57.9255 25.4676 57.8611V54.493H21.3809V57.8611C21.3809 57.9255 21.3559 57.9755 21.3058 58.0113C21.2629 58.0399 21.1807 58.0542 21.0591 58.0542H20.9733ZM29.8483 58.0327C29.6766 58.0327 29.5908 57.9505 29.5908 57.786V50.771C29.5908 50.6065 29.6766 50.5243 29.8483 50.5243H33.581C33.7026 50.5243 33.7634 50.6065 33.7634 50.771V50.9104C33.7634 51.0749 33.7026 51.1571 33.581 51.1571H30.3202V53.8816H33.2592C33.3808 53.8816 33.4416 53.9639 33.4416 54.1283V54.2571C33.4416 54.4215 33.3808 54.5038 33.2592 54.5038H30.3202V57.3999H33.5917C33.7061 57.3999 33.7634 57.4821 33.7634 57.6466V57.786C33.7634 57.9505 33.7061 58.0327 33.5917 58.0327H29.8483ZM36.7764 58.0327C36.6047 58.0327 36.5189 57.9505 36.5189 57.786V50.6959C36.5189 50.6316 36.544 50.5851 36.594 50.5565C36.6441 50.5207 36.7263 50.5028 36.8407 50.5028H36.9265C37.0481 50.5028 37.1303 50.5207 37.1732 50.5565C37.2233 50.5851 37.2483 50.6316 37.2483 50.6959V57.3999H40.3375C40.4591 57.3999 40.5198 57.4821 40.5198 57.6466V57.786C40.5198 57.9505 40.4591 58.0327 40.3375 58.0327H36.7764ZM43.0446 58.0327C42.8729 58.0327 42.7871 57.9505 42.7871 57.786V50.6959C42.7871 50.6316 42.8121 50.5851 42.8622 50.5565C42.9123 50.5207 42.9945 50.5028 43.1089 50.5028H43.1947C43.3163 50.5028 43.3985 50.5207 43.4414 50.5565C43.4915 50.5851 43.5165 50.6316 43.5165 50.6959V57.3999H46.6057C46.7273 57.3999 46.788 57.4821 46.788 57.6466V57.786C46.788 57.9505 46.7273 58.0327 46.6057 58.0327H43.0446ZM51.6025 58.0971C50.5656 58.0971 49.7754 57.7717 49.232 57.121C48.6885 56.4631 48.4168 55.5085 48.4168 54.2571C48.4168 52.9985 48.6885 52.051 49.232 51.4146C49.7754 50.7781 50.5656 50.4599 51.6025 50.4599C52.6465 50.4599 53.4403 50.7781 53.9837 51.4146C54.5272 52.051 54.7989 52.9985 54.7989 54.2571C54.7989 55.5085 54.5272 56.4631 53.9837 57.121C53.4403 57.7717 52.6465 58.0971 51.6025 58.0971ZM51.6025 57.4535C52.4034 57.4535 53.0112 57.1818 53.426 56.6383C53.8407 56.0948 54.0481 55.3011 54.0481 54.2571C54.0481 53.213 53.8407 52.4264 53.426 51.8973C53.0112 51.3681 52.4034 51.1035 51.6025 51.1035C50.8087 51.1035 50.2045 51.3681 49.7897 51.8973C49.375 52.4264 49.1676 53.213 49.1676 54.2571C49.1676 55.3011 49.375 56.0948 49.7897 56.6383C50.2045 57.1818 50.8087 57.4535 51.6025 57.4535ZM56.7315 59.277C56.6886 59.277 56.6421 59.2627 56.5921 59.2341C56.5492 59.2126 56.5277 59.1804 56.5277 59.1375C56.5277 59.1018 56.5492 59.0481 56.5921 58.9766C56.6421 58.9123 56.6957 58.8122 56.753 58.6763C56.7959 58.5762 56.8352 58.4582 56.8709 58.3223C56.9067 58.1936 56.9353 58.0327 56.9568 57.8396C56.9854 57.6394 56.9997 57.3927 56.9997 57.0995C56.9997 57.0137 57.0247 56.9565 57.0747 56.9279C57.1248 56.8921 57.2035 56.8743 57.3107 56.8743H57.4287C57.536 56.8743 57.6146 56.8921 57.6647 56.9279C57.7147 56.9565 57.7398 57.0137 57.7398 57.0995C57.7398 57.4213 57.704 57.7181 57.6325 57.9898C57.561 58.2544 57.4716 58.4832 57.3644 58.6763C57.2571 58.8694 57.1463 59.016 57.0318 59.1161C56.9246 59.2233 56.8245 59.277 56.7315 59.277ZM65.6287 58.0542C65.5143 58.0542 65.4214 58.0363 65.3498 58.0005C65.2855 57.9648 65.2426 57.9111 65.2211 57.8396L63.3011 50.8032C63.294 50.7746 63.2868 50.746 63.2797 50.7174C63.2725 50.6888 63.2689 50.6673 63.2689 50.653C63.2689 50.603 63.294 50.5672 63.344 50.5457C63.4012 50.5171 63.4799 50.5028 63.58 50.5028H63.6873C63.7731 50.5028 63.8446 50.5136 63.9018 50.535C63.9662 50.5565 64.0055 50.5958 64.0198 50.653L65.736 57.3462H65.7789L67.4844 50.7066C67.4987 50.6351 67.538 50.5851 67.6024 50.5565C67.6667 50.5207 67.7633 50.5028 67.892 50.5028H68.1065C68.2281 50.5028 68.3246 50.5207 68.3961 50.5565C68.4676 50.5851 68.5105 50.6351 68.5248 50.7066L70.2518 57.3462H70.2947L72.0002 50.653C72.0145 50.603 72.0502 50.5672 72.1074 50.5457C72.1718 50.5171 72.2504 50.5028 72.3434 50.5028H72.4399C72.5472 50.5028 72.6259 50.5171 72.6759 50.5457C72.726 50.5672 72.751 50.603 72.751 50.653C72.751 50.6673 72.7474 50.6923 72.7403 50.7281C72.7331 50.7567 72.726 50.7817 72.7188 50.8032L70.8095 57.8396C70.7881 57.9111 70.7452 57.9648 70.6808 58.0005C70.6165 58.0363 70.5271 58.0542 70.4127 58.0542H70.1338C70.0194 58.0542 69.9264 58.0363 69.8549 58.0005C69.7905 57.9648 69.7476 57.9111 69.7262 57.8396L68.0207 51.3288H67.9778L66.3045 57.8396C66.283 57.9111 66.2366 57.9648 66.165 58.0005C66.0935 58.0363 66.0006 58.0542 65.8862 58.0542H65.6287ZM75.3806 58.0327C75.209 58.0327 75.1232 57.9505 75.1232 57.786V50.771C75.1232 50.6065 75.209 50.5243 75.3806 50.5243H79.1134C79.2349 50.5243 79.2957 50.6065 79.2957 50.771V50.9104C79.2957 51.0749 79.2349 51.1571 79.1134 51.1571H75.8526V53.8816H78.7916C78.9132 53.8816 78.9739 53.9639 78.9739 54.1283V54.2571C78.9739 54.4215 78.9132 54.5038 78.7916 54.5038H75.8526V57.3999H79.1241C79.2385 57.3999 79.2957 57.4821 79.2957 57.6466V57.786C79.2957 57.9505 79.2385 58.0327 79.1241 58.0327H75.3806ZM84.9821 58.0542C84.8748 58.0542 84.7926 58.0399 84.7354 58.0113C84.6853 57.9827 84.6603 57.9469 84.6603 57.904C84.6603 57.8825 84.6603 57.8611 84.6603 57.8396C84.6675 57.8182 84.6746 57.7967 84.6818 57.7753L87.3312 50.6745C87.3526 50.6173 87.3955 50.5743 87.4599 50.5457C87.5242 50.5171 87.6065 50.5028 87.7066 50.5028H87.9426C88.0498 50.5028 88.1321 50.5171 88.1893 50.5457C88.2536 50.5743 88.2965 50.6173 88.318 50.6745L90.9781 57.786C90.9853 57.8075 90.9888 57.8289 90.9888 57.8504C90.996 57.8647 90.9996 57.8825 90.9996 57.904C90.9996 57.9469 90.9745 57.9827 90.9245 58.0113C90.8744 58.0399 90.7922 58.0542 90.6778 58.0542H90.6027C90.5097 58.0542 90.4311 58.0434 90.3667 58.022C90.3095 58.0005 90.2702 57.9612 90.2487 57.904L88.1249 52.1118C88.0677 51.9616 88.0141 51.8115 87.964 51.6613C87.914 51.5111 87.8711 51.3609 87.8353 51.2108H87.8139C87.7638 51.3609 87.7173 51.5111 87.6744 51.6613C87.6315 51.8043 87.5779 51.9545 87.5135 52.1118L85.3897 57.904C85.3683 57.9612 85.3253 58.0005 85.261 58.022C85.2038 58.0434 85.1287 58.0542 85.0357 58.0542H84.9821ZM85.7973 56.0054V55.4048H89.8304V56.0054H85.7973ZM93.6734 58.0542C93.559 58.0542 93.4768 58.0399 93.4267 58.0113C93.3767 57.9755 93.3516 57.9255 93.3516 57.8611V50.771C93.3516 50.6065 93.4375 50.5243 93.6091 50.5243H95.8187C96.5767 50.5243 97.1488 50.7031 97.5349 51.0606C97.9282 51.4182 98.1249 51.933 98.1249 52.6052C98.1249 52.927 98.0677 53.2166 97.9532 53.474C97.846 53.7243 97.6887 53.9281 97.4813 54.0854C97.2739 54.2356 97.0344 54.3321 96.7626 54.375V54.4179C96.9843 54.4823 97.1702 54.6182 97.3204 54.8255C97.4706 55.0329 97.6028 55.2975 97.7173 55.6193L98.4788 57.7324C98.4931 57.7681 98.5039 57.8039 98.511 57.8396C98.5182 57.8754 98.5217 57.9004 98.5217 57.9147C98.5217 57.9576 98.4967 57.9934 98.4466 58.022C98.3966 58.0434 98.3144 58.0542 98.1999 58.0542H98.1034C98.0176 58.0542 97.9461 58.0399 97.8889 58.0113C97.8317 57.9827 97.7923 57.9398 97.7709 57.8825L96.9771 55.6515C96.8985 55.394 96.7984 55.1938 96.6768 55.0508C96.5552 54.9006 96.4086 54.7934 96.237 54.729C96.0726 54.6647 95.8723 54.6325 95.6364 54.6325H94.081V57.8611C94.081 57.9255 94.056 57.9755 94.006 58.0113C93.963 58.0399 93.8808 58.0542 93.7592 58.0542H93.6734ZM94.081 54.0103H95.8187C96.355 54.0103 96.7483 53.8959 96.9986 53.6671C97.256 53.4311 97.3847 53.0879 97.3847 52.6374C97.3847 52.144 97.256 51.7757 96.9986 51.5326C96.7483 51.2823 96.355 51.1571 95.8187 51.1571H94.081V54.0103ZM101.229 58.0327C101.057 58.0327 100.971 57.9505 100.971 57.786V50.771C100.971 50.6065 101.057 50.5243 101.229 50.5243H104.961C105.083 50.5243 105.144 50.6065 105.144 50.771V50.9104C105.144 51.0749 105.083 51.1571 104.961 51.1571H101.7V53.8816H104.64C104.761 53.8816 104.822 53.9639 104.822 54.1283V54.2571C104.822 54.4215 104.761 54.5038 104.64 54.5038H101.7V57.3999H104.972C105.086 57.3999 105.144 57.4821 105.144 57.6466V57.786C105.144 57.9505 105.086 58.0327 104.972 58.0327H101.229Z" fill="black"/>
<path d="M30.1544 82.8705C28.5297 82.8705 27.3341 82.3614 26.5675 81.3431C25.801 80.3248 25.4177 78.7802 25.4177 76.7093C25.4177 74.6728 25.8124 73.1453 26.6019 72.1271C27.3913 71.0973 28.6041 70.5825 30.2402 70.5825C30.572 70.5825 30.881 70.6111 31.167 70.6683C31.4645 70.7141 31.6933 70.7598 31.8535 70.8056C32.0709 70.8742 32.2196 70.96 32.2997 71.063C32.3912 71.166 32.437 71.3147 32.437 71.5092C32.437 71.7152 32.4084 71.9669 32.3512 72.2644C32.3054 72.5618 32.231 72.8307 32.1281 73.071C32.0251 73.2998 31.8992 73.4142 31.7505 73.4142C31.6018 73.4142 31.413 73.3856 31.1841 73.3284C30.9668 73.2598 30.7036 73.2254 30.3947 73.2254C29.6968 73.2254 29.1876 73.5 28.8673 74.0492C28.5583 74.587 28.4039 75.4794 28.4039 76.7265C28.4039 77.9622 28.5641 78.8546 28.8844 79.4038C29.2162 79.9415 29.7425 80.2104 30.4633 80.2104C30.8523 80.2104 31.1498 80.1818 31.3558 80.1246C31.5732 80.056 31.7677 80.0216 31.9393 80.0216C32.0995 80.0216 32.2253 80.1303 32.3168 80.3477C32.4084 80.5537 32.4713 80.7996 32.5056 81.0857C32.5514 81.3717 32.5743 81.6177 32.5743 81.8237C32.5743 82.0182 32.5342 82.1726 32.4541 82.287C32.3855 82.4014 32.2482 82.493 32.0423 82.5616C31.8592 82.6303 31.596 82.6989 31.2528 82.7676C30.9096 82.8362 30.5434 82.8705 30.1544 82.8705ZM35.4609 82.8705C34.6714 82.8705 34.0707 82.6246 33.6588 82.1326C33.2584 81.6292 33.0582 80.9598 33.0582 80.1246C33.0582 79.8042 33.1039 79.461 33.1955 79.0949C33.287 78.7288 33.4758 78.3855 33.7618 78.0652C34.0479 77.7448 34.4712 77.4816 35.0318 77.2757C35.6039 77.0698 36.359 76.9668 37.2972 76.9668V76.6579C37.2972 76.0972 36.9826 75.8169 36.3533 75.8169C35.9643 75.8169 35.6096 75.857 35.2892 75.9371C34.9689 76.0057 34.6943 76.0801 34.4655 76.1602C34.2366 76.2402 34.0707 76.2803 33.9678 76.2803C33.8419 76.2803 33.7389 76.1773 33.6588 75.9714C33.5788 75.7654 33.5158 75.5366 33.4701 75.2849C33.4357 75.0332 33.4186 74.833 33.4186 74.6842C33.4186 74.5469 33.5215 74.4153 33.7275 74.2895C33.9334 74.1636 34.1966 74.0492 34.5169 73.9462C34.8373 73.8433 35.1748 73.7632 35.5295 73.706C35.8842 73.6488 36.2217 73.6202 36.5421 73.6202C37.4459 73.6202 38.1553 73.746 38.6702 73.9977C39.1965 74.2494 39.5626 74.5984 39.7686 75.0446C39.9859 75.4908 40.0946 76.0057 40.0946 76.5892V79.7814C40.0946 80.3077 40.1061 80.7138 40.129 80.9999C40.1633 81.2859 40.1919 81.509 40.2148 81.6692C40.2491 81.8179 40.2663 81.9552 40.2663 82.0811C40.2663 82.2184 40.1919 82.3328 40.0431 82.4243C39.9058 82.5044 39.7285 82.5731 39.5111 82.6303C39.2937 82.676 39.0763 82.7104 38.859 82.7332C38.6416 82.7447 38.4642 82.7504 38.3269 82.7504C38.0295 82.7504 37.8407 82.6875 37.7606 82.5616C37.6805 82.4358 37.6118 82.1841 37.5546 81.8065C37.4059 82.0124 37.1599 82.2413 36.8167 82.493C36.4734 82.7447 36.0215 82.8705 35.4609 82.8705ZM36.5592 80.7596C36.9139 80.7596 37.1599 80.6452 37.2972 80.4164V78.5457C36.7709 78.5457 36.3876 78.6544 36.1473 78.8718C35.9185 79.0892 35.8041 79.3924 35.8041 79.7814C35.8041 80.4335 36.0558 80.7596 36.5592 80.7596ZM42.4603 82.7676C42.037 82.7676 41.7338 82.7161 41.5507 82.6131C41.3677 82.4987 41.2761 82.3328 41.2761 82.1154V76.7437C41.2761 76.2059 41.259 75.794 41.2246 75.508C41.2018 75.222 41.1732 75.0046 41.1388 74.8558C41.116 74.7071 41.1045 74.5698 41.1045 74.4439C41.1045 74.2494 41.2246 74.1064 41.4649 74.0149C41.7052 73.9234 41.9855 73.8604 42.3059 73.8261C42.6262 73.7918 42.8951 73.7746 43.1125 73.7746C43.4214 73.7746 43.6159 73.8547 43.696 74.0149C43.7875 74.1636 43.8733 74.4668 43.9534 74.9245C44.1708 74.6041 44.4683 74.3067 44.8459 74.0321C45.2349 73.7575 45.6754 73.6202 46.1673 73.6202C47.2199 73.6202 47.8835 74.0721 48.1581 74.976C48.3641 74.6327 48.6501 74.3238 49.0162 74.0492C49.3824 73.7632 49.8114 73.6202 50.3034 73.6202C51.745 73.6202 52.4658 74.4153 52.4658 76.0057V82.1154C52.4658 82.3328 52.3743 82.4987 52.1912 82.6131C52.0082 82.7161 51.705 82.7676 51.2816 82.7676H50.8698C50.4464 82.7676 50.1375 82.7161 49.943 82.6131C49.7599 82.4987 49.6684 82.3328 49.6684 82.1154V76.7093C49.6684 76.2059 49.4739 75.9542 49.0849 75.9542C48.8103 75.9542 48.5357 76.0972 48.2611 76.3833V82.1154C48.2611 82.3328 48.1696 82.4987 47.9865 82.6131C47.8035 82.7161 47.5003 82.7676 47.0769 82.7676H46.665C46.2417 82.7676 45.9385 82.7161 45.7554 82.6131C45.5724 82.4987 45.4809 82.3328 45.4809 82.1154V76.7093C45.4809 76.4462 45.4351 76.2574 45.3436 76.143C45.2635 76.0171 45.1204 75.9542 44.9145 75.9542C44.7658 75.9542 44.6113 75.9943 44.4511 76.0743C44.2909 76.143 44.1651 76.2402 44.0736 76.3661V82.1154C44.0736 82.3328 43.9763 82.4987 43.7818 82.6131C43.5987 82.7161 43.2955 82.7676 42.8722 82.7676H42.4603ZM54.7952 82.7676C54.3718 82.7676 54.0687 82.7161 53.8856 82.6131C53.7025 82.4987 53.611 82.3328 53.611 82.1154V74.3753C53.611 74.1579 53.7025 73.9977 53.8856 73.8948C54.0687 73.7803 54.3718 73.7231 54.7952 73.7231H55.2071C55.6304 73.7231 55.9336 73.7803 56.1167 73.8948C56.2997 73.9977 56.3913 74.1579 56.3913 74.3753V82.1154C56.3913 82.3328 56.2997 82.4987 56.1167 82.6131C55.9336 82.7161 55.6304 82.7676 55.2071 82.7676H54.7952ZM55.0183 72.8822C54.5034 72.8822 54.1316 72.8307 53.9028 72.7277C53.6739 72.6133 53.5595 72.4531 53.5595 72.2472V71.0802C53.5595 70.8742 53.6739 70.7198 53.9028 70.6168C54.1316 70.5024 54.5034 70.4452 55.0183 70.4452C55.5217 70.4452 55.8878 70.5024 56.1167 70.6168C56.3569 70.7198 56.4771 70.8742 56.4771 71.0802V72.2472C56.4771 72.4531 56.3569 72.6133 56.1167 72.7277C55.8878 72.8307 55.5217 72.8822 55.0183 72.8822ZM62.6072 82.8705C61.5774 82.8705 60.7651 82.5673 60.1701 81.961C59.5752 81.3546 59.2777 80.5193 59.2777 79.4553C59.2777 78.7116 59.4379 78.0537 59.7582 77.4816C60.0786 76.9096 60.5134 76.4977 61.0626 76.246V76.1773C60.6392 75.9599 60.3017 75.6281 60.05 75.1819C59.7983 74.7243 59.6724 74.1922 59.6724 73.5858C59.6724 72.6705 59.9413 71.944 60.4791 71.4063C61.0282 70.8571 61.7605 70.5825 62.6758 70.5825C62.9504 70.5825 63.225 70.6111 63.4996 70.6683C63.7856 70.7141 64.0202 70.7941 64.2032 70.9086C64.3863 71.0115 64.4778 71.1431 64.4778 71.3033C64.4778 71.7724 64.4092 72.1499 64.2719 72.436C64.1346 72.722 63.9916 72.865 63.8428 72.865C63.7399 72.865 63.6369 72.8536 63.5339 72.8307C63.4424 72.7964 63.328 72.7792 63.1907 72.7792C62.6872 72.7792 62.4355 73.1854 62.4355 73.9977C62.4355 74.4439 62.5156 74.7643 62.6758 74.9588C62.836 75.1419 63.0877 75.2334 63.4309 75.2334H64.289L64.6151 73.6717C64.6609 73.4543 64.7467 73.2998 64.8726 73.2083C65.0099 73.1053 65.2215 73.0538 65.5076 73.0538H65.9194C66.6174 73.0538 66.9663 73.2712 66.9663 73.706V75.2334H67.6013C68.0132 75.2334 68.2192 75.5538 68.2192 76.1945V76.6579C68.2192 77.2986 68.0132 77.6189 67.6013 77.6189H66.9663V79.9015C66.9663 80.1303 66.9949 80.3019 67.0521 80.4164C67.1208 80.5308 67.2409 80.588 67.4125 80.588C67.5155 80.588 67.6071 80.5765 67.6871 80.5537C67.7672 80.5193 67.8416 80.5022 67.9102 80.5022C68.0132 80.5022 68.1048 80.5994 68.1848 80.7939C68.2649 80.9884 68.3279 81.2001 68.3736 81.4289C68.4194 81.6578 68.4423 81.8294 68.4423 81.9438C68.4423 82.1612 68.2535 82.3728 67.8759 82.5788C67.4984 82.7733 67.0464 82.8705 66.5201 82.8705C66.2112 82.8705 65.9023 82.8248 65.5934 82.7332C65.2959 82.6303 65.0613 82.4758 64.8897 82.2699C64.6037 82.4072 64.352 82.5216 64.1346 82.6131C63.9172 82.7046 63.6884 82.7676 63.4481 82.8019C63.2193 82.8477 62.939 82.8705 62.6072 82.8705ZM63.122 80.6738C63.2936 80.6738 63.4767 80.6509 63.6712 80.6051C63.8657 80.5594 64.0831 80.4736 64.3234 80.3477C64.3005 80.1647 64.289 79.9415 64.289 79.6784V77.6189H63.2765C62.8646 77.6189 62.5728 77.7505 62.4012 78.0137C62.2296 78.2654 62.1438 78.6601 62.1438 79.1979C62.1438 80.1818 62.4699 80.6738 63.122 80.6738ZM72.3767 82.8705C72.0907 82.8705 71.7989 82.8305 71.5014 82.7504C71.2039 82.6818 70.9522 82.5845 70.7463 82.4587C70.5518 82.3328 70.4545 82.1955 70.4545 82.0468C70.4545 81.8637 70.4831 81.6349 70.5403 81.3603C70.5861 81.0742 70.6548 80.8283 70.7463 80.6223C70.8378 80.4049 70.9408 80.2962 71.0552 80.2962C71.1582 80.2962 71.2611 80.3191 71.3641 80.3649C71.4671 80.3992 71.5987 80.4164 71.7589 80.4164C72.0563 80.4164 72.2623 80.342 72.3767 80.1933C72.5025 80.0331 72.5655 79.7528 72.5655 79.3523V71.3376C72.5655 71.1317 72.657 70.9715 72.8401 70.8571C73.0346 70.7427 73.3435 70.6854 73.7668 70.6854H74.2302C74.6535 70.6854 74.9624 70.7427 75.1569 70.8571C75.3515 70.9715 75.4487 71.1317 75.4487 71.3376V79.1807C75.4487 80.4507 75.2027 81.3832 74.7107 81.9781C74.2302 82.5731 73.4522 82.8705 72.3767 82.8705ZM80.1222 82.8705C78.9094 82.8705 77.9883 82.4701 77.3591 81.6692C76.7412 80.8683 76.4323 79.7242 76.4323 78.2368C76.4323 76.738 76.7412 75.5938 77.3591 74.8044C77.9769 74.0149 78.8979 73.6202 80.1222 73.6202C81.3464 73.6202 82.2674 74.0149 82.8853 74.8044C83.5145 75.5938 83.8292 76.738 83.8292 78.2368C83.8292 79.7242 83.5145 80.8683 82.8853 81.6692C82.2674 82.4701 81.3464 82.8705 80.1222 82.8705ZM80.1393 80.588C80.4597 80.588 80.6771 80.4221 80.7915 80.0903C80.9173 79.7585 80.9803 79.1406 80.9803 78.2368C80.9803 77.3443 80.9173 76.7322 80.7915 76.4004C80.6771 76.0686 80.4597 75.9027 80.1393 75.9027C79.8075 75.9027 79.5787 76.0686 79.4528 76.4004C79.3384 76.7322 79.2812 77.3443 79.2812 78.2368C79.2812 79.1406 79.3384 79.7585 79.4528 80.0903C79.5787 80.4221 79.8075 80.588 80.1393 80.588ZM86.9137 82.8705C86.1242 82.8705 85.5235 82.6246 85.1116 82.1326C84.7112 81.6292 84.511 80.9598 84.511 80.1246C84.511 79.8042 84.5567 79.461 84.6483 79.0949C84.7398 78.7288 84.9286 78.3855 85.2146 78.0652C85.5006 77.7448 85.924 77.4816 86.4846 77.2757C87.0567 77.0698 87.8118 76.9668 88.75 76.9668V76.6579C88.75 76.0972 88.4354 75.8169 87.8061 75.8169C87.4171 75.8169 87.0624 75.857 86.742 75.9371C86.4217 76.0057 86.1471 76.0801 85.9183 76.1602C85.6894 76.2402 85.5235 76.2803 85.4206 76.2803C85.2947 76.2803 85.1917 76.1773 85.1116 75.9714C85.0315 75.7654 84.9686 75.5366 84.9229 75.2849C84.8885 75.0332 84.8714 74.833 84.8714 74.6842C84.8714 74.5469 84.9743 74.4153 85.1803 74.2895C85.3862 74.1636 85.6494 74.0492 85.9697 73.9462C86.2901 73.8433 86.6276 73.7632 86.9823 73.706C87.337 73.6488 87.6745 73.6202 87.9949 73.6202C88.8987 73.6202 89.6081 73.746 90.123 73.9977C90.6493 74.2494 91.0154 74.5984 91.2213 75.0446C91.4387 75.4908 91.5474 76.0057 91.5474 76.5892V79.7814C91.5474 80.3077 91.5589 80.7138 91.5818 80.9999C91.6161 81.2859 91.6447 81.509 91.6676 81.6692C91.7019 81.8179 91.719 81.9552 91.719 82.0811C91.719 82.2184 91.6447 82.3328 91.4959 82.4243C91.3586 82.5044 91.1813 82.5731 90.9639 82.6303C90.7465 82.676 90.5291 82.7104 90.3118 82.7332C90.0944 82.7447 89.917 82.7504 89.7797 82.7504C89.4823 82.7504 89.2935 82.6875 89.2134 82.5616C89.1333 82.4358 89.0646 82.1841 89.0074 81.8065C88.8587 82.0124 88.6127 82.2413 88.2695 82.493C87.9262 82.7447 87.4743 82.8705 86.9137 82.8705ZM88.012 80.7596C88.3667 80.7596 88.6127 80.6452 88.75 80.4164V78.5457C88.2237 78.5457 87.8404 78.6544 87.6001 78.8718C87.3713 79.0892 87.2569 79.3924 87.2569 79.7814C87.2569 80.4335 87.5086 80.7596 88.012 80.7596ZM86.0384 72.7621C85.9011 72.7621 85.7295 72.7277 85.5235 72.6591C85.329 72.5904 85.2318 72.4817 85.2318 72.333C85.2318 72.2529 85.2432 72.1614 85.2661 72.0584C85.3004 71.944 85.3347 71.8525 85.3691 71.7838C85.6894 70.9715 86.2386 70.5653 87.0166 70.5653C87.3255 70.5653 87.6345 70.6111 87.9434 70.7026C88.2637 70.7941 88.5555 70.8914 88.8187 70.9944C89.0932 71.0859 89.3049 71.1317 89.4536 71.1317C89.6024 71.1317 89.7225 71.0859 89.8141 70.9944C89.9056 70.9028 89.9857 70.817 90.0543 70.7369C90.123 70.6454 90.2145 70.5996 90.3289 70.5996C90.4662 70.5996 90.6264 70.6626 90.8095 70.7884C91.004 70.9143 91.1012 71.0459 91.1012 71.1831C91.1012 71.2632 91.0554 71.4234 90.9639 71.6637C90.8266 71.984 90.6092 72.2472 90.3118 72.4531C90.0143 72.6591 89.6882 72.7621 89.3335 72.7621C89.036 72.7621 88.7328 72.7163 88.4239 72.6248C88.115 72.5332 87.8232 72.4417 87.5487 72.3502C87.2855 72.2586 87.0624 72.2129 86.8793 72.2129C86.7192 72.2129 86.5933 72.2586 86.5018 72.3502C86.4217 72.4417 86.3473 72.5332 86.2787 72.6248C86.2215 72.7163 86.1414 72.7621 86.0384 72.7621ZM96.1614 82.8705C94.9486 82.8705 94.0275 82.4701 93.3983 81.6692C92.7804 80.8683 92.4715 79.7242 92.4715 78.2368C92.4715 76.738 92.7804 75.5938 93.3983 74.8044C94.0161 74.0149 94.9371 73.6202 96.1614 73.6202C97.3856 73.6202 98.3066 74.0149 98.9245 74.8044C99.5537 75.5938 99.8684 76.738 99.8684 78.2368C99.8684 79.7242 99.5537 80.8683 98.9245 81.6692C98.3066 82.4701 97.3856 82.8705 96.1614 82.8705ZM96.1785 80.588C96.4989 80.588 96.7163 80.4221 96.8307 80.0903C96.9565 79.7585 97.0195 79.1406 97.0195 78.2368C97.0195 77.3443 96.9565 76.7322 96.8307 76.4004C96.7163 76.0686 96.4989 75.9027 96.1785 75.9027C95.8467 75.9027 95.6179 76.0686 95.492 76.4004C95.3776 76.7322 95.3204 77.3443 95.3204 78.2368C95.3204 79.1406 95.3776 79.7585 95.492 80.0903C95.6179 80.4221 95.8467 80.588 96.1785 80.588Z" fill="black"/>
<circle cx="62.7826" cy="5.51166" r="3.80841" transform="rotate(11.8959 62.7826 5.51166)" fill="black"/>
</svg>
