<svg width="121" height="70" viewBox="0 0 121 70" fill="none" xmlns="http://www.w3.org/2000/svg">
<rect x="14.9765" y="0.904581" width="101.628" height="51.1577" rx="3.1234" transform="rotate(10 14.9765 0.904581)" fill="white"/>
<rect x="14.9765" y="0.904581" width="101.628" height="51.1577" rx="3.1234" transform="rotate(10 14.9765 0.904581)" stroke="black" stroke-width="1.5617"/>
<path d="M23.7599 20.3343C23.6549 20.3158 23.5817 20.2894 23.5404 20.255C23.5002 20.2141 23.4853 20.1641 23.4958 20.105L24.6557 13.5265C24.6662 13.4674 24.6967 13.4287 24.7472 13.4106C24.799 13.3859 24.8774 13.3828 24.9824 13.4013L25.0612 13.4152C25.1728 13.4349 25.2454 13.4646 25.279 13.5044C25.3204 13.5387 25.3358 13.5855 25.3254 13.6445L24.8114 16.5596L28.5635 17.2212L29.0775 14.3061C29.0879 14.2471 29.1184 14.2084 29.169 14.1903C29.2208 14.1655 29.2992 14.1624 29.4042 14.181L29.483 14.1949C29.5946 14.2145 29.6672 14.2443 29.7008 14.284C29.7422 14.3184 29.7576 14.3651 29.7472 14.4242L28.5872 21.0027C28.5768 21.0618 28.5457 21.1037 28.494 21.1285C28.4499 21.1478 28.3721 21.1476 28.2605 21.1279L28.1817 21.114C28.0767 21.0955 28.0035 21.069 27.9622 21.0347C27.922 20.9938 27.9071 20.9437 27.9175 20.8847L28.4628 17.7924L24.7107 17.1308L24.1654 20.2231C24.155 20.2821 24.1239 20.324 24.0722 20.3488C24.0282 20.3681 23.9503 20.3679 23.8387 20.3482L23.7599 20.3343ZM31.9117 21.7514C31.7541 21.7236 31.6887 21.6342 31.7153 21.4832L32.8509 15.0426C32.8776 14.8916 32.9697 14.83 33.1272 14.8577L36.5544 15.462C36.666 15.4817 36.7085 15.5671 36.6819 15.7181L36.6593 15.8461C36.6327 15.9971 36.5635 16.0628 36.4519 16.0431L33.4581 15.5152L33.017 18.0166L35.7154 18.4924C35.827 18.5121 35.8695 18.5974 35.8429 18.7484L35.8221 18.8666C35.7954 19.0176 35.7263 19.0833 35.6147 19.0636L32.9163 18.5878L32.4475 21.2468L35.4511 21.7764C35.5562 21.7949 35.5954 21.8797 35.5688 22.0307L35.5462 22.1587C35.5196 22.3097 35.4537 22.376 35.3487 22.3574L31.9117 21.7514ZM38.2726 22.873C38.115 22.8452 38.0495 22.7558 38.0761 22.6048L39.224 16.0952C39.2344 16.0361 39.2649 15.9975 39.3155 15.9794C39.3672 15.9546 39.4456 15.9515 39.5507 15.9701L39.6294 15.984C39.7411 16.0036 39.8137 16.0334 39.8473 16.0731C39.8886 16.1075 39.9041 16.1542 39.8936 16.2133L38.8083 22.3684L41.6446 22.8685C41.7562 22.8881 41.7987 22.9735 41.7721 23.1245L41.7495 23.2525C41.7229 23.4035 41.6537 23.4692 41.5421 23.4495L38.2726 22.873ZM44.0275 23.8877C43.87 23.86 43.8045 23.7706 43.8311 23.6196L44.9789 17.11C44.9894 17.0509 45.0199 17.0123 45.0704 16.9941C45.1222 16.9694 45.2006 16.9663 45.3056 16.9848L45.3844 16.9987C45.496 17.0184 45.5686 17.0481 45.6022 17.0879C45.6436 17.1223 45.659 17.169 45.6486 17.2281L44.5633 23.3831L47.3995 23.8832C47.5112 23.9029 47.5537 23.9882 47.527 24.1392L47.5045 24.2673C47.4778 24.4183 47.4087 24.4839 47.2971 24.4643L44.0275 23.8877ZM51.8743 25.3323C50.9224 25.1644 50.2496 24.7378 49.8559 24.0523C49.4635 23.3603 49.3685 22.4399 49.5711 21.2909C49.7749 20.1354 50.1777 19.3095 50.7797 18.8132C51.3817 18.3168 52.1587 18.1526 53.1107 18.3204C54.0693 18.4895 54.7465 18.9101 55.1424 19.5824C55.5384 20.2547 55.6345 21.1686 55.4307 22.3241C55.2281 23.4731 54.8241 24.3056 54.2186 24.8216C53.6143 25.3311 52.8329 25.5013 51.8743 25.3323ZM51.9785 24.7414C52.7139 24.871 53.3159 24.72 53.7847 24.2881C54.2534 23.8563 54.5723 23.1611 54.7414 22.2026C54.9104 21.244 54.8473 20.4883 54.5522 19.9353C54.2571 19.3823 53.7419 19.041 53.0065 18.9113C52.2778 18.7828 51.6802 18.9279 51.2137 19.3466C50.7472 19.7653 50.4295 20.4539 50.2605 21.4125C50.0915 22.371 50.1534 23.1334 50.4462 23.6995C50.739 24.2656 51.2498 24.6129 51.9785 24.7414ZM56.3924 27.2459C56.353 27.239 56.3126 27.2183 56.2713 27.1839C56.2354 27.1573 56.2209 27.1243 56.2279 27.0849C56.2337 27.0521 56.262 27.0063 56.313 26.9476C56.3694 26.8966 56.4348 26.8134 56.5093 26.6979C56.5649 26.6129 56.6202 26.511 56.675 26.392C56.7286 26.2796 56.7809 26.1365 56.8319 25.9627C56.8906 25.7835 56.9436 25.5593 56.9911 25.2902C57.005 25.2114 57.0372 25.1629 57.0878 25.1447C57.1396 25.12 57.2147 25.1163 57.3132 25.1337L57.4215 25.1528C57.52 25.1702 57.5893 25.1993 57.6295 25.2402C57.6708 25.2746 57.6845 25.3312 57.6706 25.41C57.6185 25.7054 57.5377 25.9721 57.428 26.21C57.3195 26.4413 57.2004 26.637 57.0707 26.7969C56.9409 26.9568 56.8154 27.0734 56.6942 27.1468C56.5783 27.2279 56.4778 27.261 56.3924 27.2459ZM64.7591 27.5636C64.6541 27.5451 64.5716 27.5136 64.5117 27.4692C64.4584 27.426 64.4277 27.3698 64.4196 27.3006L63.7959 20.5295C63.794 20.5021 63.7921 20.4746 63.7901 20.4472C63.7882 20.4198 63.7884 20.3995 63.7907 20.3864C63.7988 20.3404 63.8276 20.3117 63.877 20.3001C63.9342 20.2831 64.0087 20.2827 64.1006 20.2989L64.1991 20.3162C64.2779 20.3301 64.3418 20.3516 64.3908 20.3805C64.4465 20.4106 64.4762 20.4531 64.4801 20.5079L64.9722 26.931L65.0116 26.9379L67.6523 21.1181C67.677 21.0547 67.7212 21.0151 67.785 20.9993C67.8498 20.9769 67.9414 20.9761 68.0595 20.9969L68.2565 21.0317C68.3681 21.0514 68.4538 21.0834 68.5137 21.1278C68.5747 21.1656 68.606 21.2185 68.6076 21.2865L69.1182 27.662L69.1576 27.669L71.807 21.7999C71.8283 21.7562 71.8669 21.7292 71.9229 21.7188C71.9866 21.7029 72.0611 21.7025 72.1465 21.7176L72.2351 21.7332C72.3336 21.7506 72.4035 21.7764 72.4448 21.8108C72.4873 21.8386 72.5045 21.8755 72.4964 21.9214C72.4941 21.9346 72.4868 21.957 72.4744 21.9886C72.4632 22.0137 72.4526 22.0356 72.4426 22.0541L69.5505 28.2054C69.5192 28.2675 69.4711 28.3098 69.4062 28.3322C69.3414 28.3546 69.2564 28.3566 69.1514 28.3381L68.8953 28.2929C68.7903 28.2744 68.7078 28.2429 68.6479 28.1985C68.5946 28.1553 68.5639 28.0991 68.5558 28.03L68.044 21.7761L68.0046 21.7691L65.4143 27.476C65.383 27.5382 65.3316 27.5799 65.2602 27.6012C65.1888 27.6224 65.1005 27.6238 64.9955 27.6053L64.7591 27.5636ZM73.716 29.1226C73.5585 29.0948 73.493 29.0055 73.5196 28.8544L74.6553 22.4138C74.6819 22.2628 74.774 22.2012 74.9316 22.229L78.3587 22.8333C78.4703 22.853 78.5128 22.9383 78.4862 23.0893L78.4636 23.2173C78.437 23.3683 78.3679 23.434 78.2562 23.4143L75.2624 22.8864L74.8214 25.3878L77.5197 25.8636C77.6313 25.8833 77.6738 25.9686 77.6472 26.1197L77.6264 26.2378C77.5997 26.3888 77.5306 26.4545 77.419 26.4348L74.7206 25.959L74.2518 28.618L77.2555 29.1476C77.3605 29.1661 77.3997 29.2509 77.3731 29.4019L77.3505 29.5299C77.3239 29.6809 77.258 29.7472 77.153 29.7287L73.716 29.1226ZM82.5279 30.6967C82.4294 30.6793 82.3562 30.6529 82.3083 30.6174C82.267 30.583 82.2498 30.5461 82.2568 30.5067C82.2602 30.487 82.2637 30.4673 82.2672 30.4477C82.2772 30.4291 82.2873 30.4106 82.2973 30.392L85.8793 24.3015C85.9083 24.2525 85.9546 24.22 86.0183 24.2042C86.0821 24.1883 86.1599 24.1885 86.2518 24.2047L86.4684 24.2429C86.5669 24.2603 86.6401 24.2867 86.688 24.3223C86.7425 24.3589 86.7749 24.4053 86.7853 24.4613L88.0764 31.4212C88.0795 31.4421 88.0793 31.4623 88.0758 31.482C88.0801 31.4963 88.0804 31.5133 88.077 31.533C88.07 31.5724 88.0413 31.6012 87.9907 31.6193C87.9401 31.6375 87.8623 31.6373 87.7572 31.6188L87.6883 31.6066C87.6029 31.5916 87.5324 31.569 87.4768 31.5389C87.4278 31.5099 87.398 31.4674 87.3876 31.4114L86.3754 25.7497C86.3472 25.6025 86.3222 25.456 86.3006 25.31C86.2789 25.164 86.2639 25.0192 86.2554 24.8755L86.2357 24.8721C86.1654 25.0018 86.0984 25.1322 86.0347 25.2631C85.9722 25.3875 85.8986 25.5167 85.814 25.6507L82.9264 30.6248C82.8975 30.6739 82.8517 30.703 82.7891 30.7123C82.7332 30.7227 82.6625 30.7204 82.5771 30.7054L82.5279 30.6967ZM83.608 28.9477L83.7053 28.3962L87.4081 29.0491L87.3109 29.6006L83.608 28.9477ZM90.5076 32.1037C90.4026 32.0852 90.3294 32.0588 90.288 32.0244C90.2479 31.9835 90.233 31.9335 90.2434 31.8744L91.3912 25.3648C91.4179 25.2138 91.51 25.1522 91.6675 25.18L93.6962 25.5377C94.3922 25.6604 94.8884 25.9172 95.1851 26.3079C95.4883 26.6999 95.5855 27.2044 95.4767 27.8216C95.4246 28.117 95.3252 28.3736 95.1785 28.5915C95.0395 28.8039 94.862 28.9655 94.6462 29.0764C94.4315 29.1807 94.1959 29.2306 93.9395 29.226L93.9325 29.2654C94.1256 29.3603 94.2743 29.5152 94.3786 29.7299C94.4829 29.9446 94.5616 30.2089 94.6145 30.5229L94.9716 32.5862C94.979 32.6214 94.983 32.656 94.9838 32.6899C94.9846 32.7239 94.9838 32.7475 94.9815 32.7606C94.9746 32.8 94.9458 32.8288 94.8952 32.8469C94.8458 32.8585 94.7685 32.8551 94.6635 32.8365L94.5749 32.8209C94.4961 32.807 94.4327 32.7823 94.3848 32.7468C94.3369 32.7113 94.3078 32.6655 94.2973 32.6095L93.9298 30.4326C93.8992 30.1835 93.8397 29.9835 93.7513 29.8325C93.664 29.6749 93.5468 29.5527 93.3996 29.4659C93.259 29.3801 93.0804 29.3182 92.8637 29.28L91.4358 29.0282L90.9131 31.9925C90.9027 32.0516 90.8716 32.0935 90.8198 32.1182C90.7758 32.1375 90.698 32.1373 90.5864 32.1176L90.5076 32.1037ZM91.5365 28.457L93.1319 28.7383C93.6243 28.8251 94.0039 28.7838 94.2707 28.6142C94.5453 28.4392 94.719 28.1449 94.792 27.7313C94.8718 27.2783 94.8133 26.9193 94.6163 26.6544C94.427 26.3841 94.0862 26.2056 93.5938 26.1187L91.9984 25.8374L91.5365 28.457ZM97.4476 33.3071C97.29 33.2794 97.2245 33.19 97.2512 33.039L98.3868 26.5983C98.4135 26.4473 98.5055 26.3857 98.6631 26.4135L102.09 27.0178C102.202 27.0375 102.244 27.1228 102.218 27.2738L102.195 27.4018C102.169 27.5528 102.099 27.6185 101.988 27.5988L98.994 27.0709L98.5529 29.5723L101.251 30.0481C101.363 30.0678 101.405 30.1532 101.379 30.3042L101.358 30.4223C101.331 30.5733 101.262 30.639 101.151 30.6193L98.4522 30.1435L97.9833 32.8025L100.987 33.3321C101.092 33.3507 101.131 33.4354 101.105 33.5864L101.082 33.7145C101.055 33.8655 100.99 33.9317 100.885 33.9132L97.4476 33.3071Z" fill="black"/>
<path d="M28.1338 44.8207C26.6422 44.5577 25.6269 43.8966 25.0879 42.8376C24.5489 41.7786 24.4471 40.2984 24.7823 38.3971C25.112 36.5273 25.7217 35.1888 26.6114 34.3817C27.5029 33.5641 28.6998 33.2877 30.2019 33.5526C30.5065 33.6063 30.7855 33.6826 31.0389 33.7814C31.3046 33.8716 31.5073 33.9507 31.6469 34.0186C31.8354 34.1168 31.9581 34.2197 32.015 34.3272C32.0823 34.4366 32.1003 34.5805 32.0688 34.7591C32.0354 34.9482 31.9684 35.1747 31.8677 35.4385C31.7776 35.7042 31.6658 35.9391 31.5323 36.143C31.4007 36.3364 31.2667 36.4211 31.1301 36.397C30.9935 36.3729 30.8248 36.3161 30.624 36.2265C30.4355 36.1283 30.1995 36.0542 29.9159 36.0042C29.2751 35.8912 28.7632 36.0609 28.3801 36.5132C28.0095 36.9569 27.7232 37.7513 27.5213 38.8963C27.3212 40.0308 27.3238 40.8761 27.529 41.4322C27.7466 41.9796 28.1863 42.3117 28.8481 42.4284C29.2052 42.4913 29.483 42.5132 29.6813 42.494C29.892 42.4662 30.0762 42.4662 30.2337 42.494C30.3808 42.5199 30.4788 42.6401 30.5276 42.8545C30.5783 43.0584 30.5963 43.2944 30.5815 43.5626C30.5772 43.8326 30.5584 44.0622 30.525 44.2512C30.4935 44.4298 30.4318 44.5652 30.3397 44.6572C30.2582 44.7512 30.1173 44.813 29.9171 44.8427C29.7379 44.8761 29.4852 44.8965 29.1589 44.9039C28.8327 44.9114 28.491 44.8836 28.1338 44.8207ZM33.0058 45.6797C32.281 45.5519 31.7693 45.2288 31.4708 44.7105C31.1846 44.1834 31.1091 43.5365 31.2444 42.7696C31.2962 42.4755 31.3938 42.1678 31.5371 41.8465C31.6804 41.5251 31.9093 41.2406 32.2238 40.9927C32.5383 40.7449 32.9695 40.5718 33.5176 40.4735C34.0762 40.377 34.7862 40.4047 35.6475 40.5566L35.6975 40.273C35.7883 39.7583 35.5448 39.45 34.9671 39.3481C34.6099 39.2851 34.2778 39.2645 33.9707 39.2861C33.6654 39.2973 33.4013 39.3211 33.1782 39.3576C32.9552 39.3941 32.7964 39.404 32.7018 39.3874C32.5863 39.367 32.5084 39.2558 32.4682 39.0537C32.428 38.8517 32.4073 38.6314 32.406 38.3929C32.4153 38.1562 32.4319 37.9696 32.456 37.8331C32.4782 37.707 32.5941 37.6029 32.8035 37.5207C33.013 37.4384 33.2731 37.376 33.5839 37.3333C33.8947 37.2906 34.2176 37.2717 34.5525 37.2766C34.8874 37.2815 35.2019 37.3099 35.496 37.3618C36.3259 37.5081 36.9568 37.7385 37.3887 38.053C37.8312 38.3693 38.1109 38.7489 38.2277 39.1919C38.3551 39.6368 38.3715 40.1271 38.277 40.6629L37.7603 43.5936C37.6751 44.0769 37.6198 44.4516 37.5945 44.7179C37.5797 44.9861 37.5699 45.1956 37.5649 45.3464C37.5724 45.4885 37.5659 45.6173 37.5455 45.7329C37.5233 45.8589 37.4365 45.9519 37.2851 46.0119C37.1461 46.0632 36.9722 46.0975 36.7633 46.1148C36.5563 46.1217 36.3512 46.118 36.1479 46.1038C35.9464 46.0791 35.7827 46.0556 35.6566 46.0334C35.3835 45.9853 35.2204 45.8969 35.1672 45.7684C35.1141 45.6399 35.0918 45.3977 35.1004 45.0418C34.9305 45.2068 34.6676 45.377 34.3117 45.5526C33.9558 45.7281 33.5205 45.7705 33.0058 45.6797ZM34.356 43.9194C34.6816 43.9769 34.926 43.9116 35.0891 43.7238L35.3919 42.0063C34.9087 41.9211 34.5392 41.9588 34.2834 42.1195C34.0381 42.282 33.884 42.5419 33.821 42.8991C33.7155 43.4978 33.8938 43.8379 34.356 43.9194ZM39.4488 46.7183C39.0601 46.6498 38.7901 46.5534 38.6387 46.4293C38.4892 46.2946 38.432 46.1274 38.4672 45.9279L39.3368 40.9959C39.4239 40.5022 39.4748 40.1213 39.4896 39.8531C39.5149 39.5868 39.5238 39.3826 39.5164 39.2405C39.5194 39.1002 39.5312 38.9723 39.5515 38.8567C39.583 38.6782 39.7165 38.5663 39.9519 38.5212C40.1873 38.476 40.4548 38.4636 40.7545 38.484C41.0542 38.5043 41.3039 38.5321 41.5034 38.5673C41.7871 38.6173 41.9527 38.7223 42.0003 38.8823C42.0602 39.0337 42.0899 39.326 42.0894 39.7591C42.3408 39.5002 42.6621 39.2752 43.0532 39.0842C43.4548 38.8951 43.8815 38.8404 44.3332 38.92C45.2996 39.0904 45.8357 39.6128 45.9415 40.4871C46.1861 40.2053 46.4988 39.968 46.8794 39.7751C47.2618 39.5718 47.6789 39.51 48.1306 39.5896C49.4542 39.823 49.9872 40.6697 49.7298 42.1299L48.7407 47.7394C48.7055 47.9389 48.5946 48.0764 48.408 48.1519C48.2233 48.2168 47.9365 48.2149 47.5479 48.1464L47.1697 48.0797C46.781 48.0112 46.5057 47.9139 46.3438 47.7879C46.1943 47.6532 46.1371 47.4861 46.1723 47.2865L47.0475 42.3231C47.129 41.8608 46.9912 41.5983 46.634 41.5353C46.3819 41.4908 46.1066 41.5777 45.8082 41.7958L44.8802 47.0587C44.845 47.2582 44.7341 47.3957 44.5476 47.4712C44.3628 47.5361 44.0761 47.5342 43.6874 47.4657L43.3093 47.399C42.9206 47.3305 42.6506 47.2341 42.4992 47.11C42.3496 46.9753 42.2924 46.8081 42.3276 46.6086L43.2028 41.6451C43.2454 41.4035 43.2339 41.2228 43.1684 41.1029C43.1153 40.9744 42.9942 40.8935 42.8051 40.8601C42.6685 40.8361 42.5202 40.8478 42.3602 40.8954C42.202 40.9325 42.0707 41.0014 41.9663 41.1022L41.0355 46.3807C41.0004 46.5803 40.8842 46.7169 40.6871 46.7905C40.5024 46.8554 40.2157 46.8535 39.827 46.785L39.4488 46.7183ZM50.7737 48.7152C50.3851 48.6467 50.115 48.5503 49.9636 48.4262C49.8141 48.2915 49.7569 48.1243 49.7921 47.9247L51.0451 40.8184C51.0803 40.6188 51.1903 40.4865 51.375 40.4216C51.5616 40.3462 51.8493 40.3428 52.2379 40.4113L52.6161 40.478C53.0048 40.5465 53.2739 40.6481 53.4234 40.7828C53.5748 40.907 53.6329 41.0689 53.5978 41.2685L52.3447 48.3748C52.3095 48.5744 52.1986 48.7119 52.012 48.7873C51.8273 48.8522 51.5406 48.8504 51.1519 48.7819L50.7737 48.7152ZM52.5789 39.6753C52.1062 39.592 51.7731 39.4845 51.5797 39.3529C51.3882 39.2109 51.309 39.0453 51.3424 38.8562L51.5313 37.7847C51.5646 37.5956 51.6947 37.4723 51.9215 37.4148C52.1501 37.3468 52.5007 37.3545 52.9734 37.4379C53.4356 37.5194 53.7625 37.6312 53.9541 37.7732C54.158 37.9067 54.2433 38.0679 54.21 38.257L54.0211 39.3285C53.9877 39.5176 53.8515 39.6452 53.6124 39.7114C53.3856 39.7688 53.0411 39.7568 52.5789 39.6753ZM57.9294 50.0744C56.984 49.9077 56.2873 49.4979 55.8392 48.8448C55.3911 48.1917 55.2532 47.3767 55.4255 46.3998C55.5459 45.717 55.7994 45.1389 56.1862 44.6656C56.5729 44.1922 57.0388 43.8844 57.5837 43.7422L57.5949 43.6792C57.2414 43.4111 56.9852 43.0518 56.8263 42.6014C56.6693 42.1404 56.6399 41.6316 56.7381 41.0748C56.8863 40.2345 57.2507 39.611 57.8315 39.2043C58.4246 38.789 59.1414 38.6554 59.9818 38.8036C60.2339 38.848 60.4814 38.9188 60.7242 39.0157C60.9794 39.1041 61.1818 39.2156 61.3313 39.3503C61.4827 39.4744 61.5455 39.6101 61.5195 39.7571C61.4436 40.1878 61.3195 40.5233 61.1471 40.7637C60.9747 41.0041 60.8203 41.1123 60.6837 41.0882C60.5892 41.0715 60.4965 41.0443 60.4056 41.0067C60.3272 40.9603 60.2249 40.9261 60.0988 40.9038C59.6366 40.8223 59.3398 41.1545 59.2083 41.9003C59.136 42.31 59.1577 42.6171 59.2733 42.8216C59.3907 43.0156 59.607 43.1404 59.9221 43.196L60.71 43.3349L61.2622 41.9538C61.3394 41.7616 61.4432 41.6337 61.5736 41.57C61.7163 41.4977 61.919 41.4847 62.1816 41.531L62.5597 41.5977C63.2005 41.7107 63.4857 41.9668 63.4153 42.3659L63.1681 43.7683L63.7511 43.8711C64.1292 43.9378 64.2664 44.2653 64.1627 44.8535L64.0877 45.279C63.984 45.8672 63.743 46.128 63.3649 46.0613L62.7819 45.9585L62.4123 48.0542C62.3753 48.2643 62.3738 48.4265 62.4078 48.5408C62.4523 48.657 62.5533 48.7289 62.7109 48.7567C62.8054 48.7734 62.8913 48.7777 62.9686 48.7697C63.0476 48.7511 63.1187 48.7474 63.1817 48.7585C63.2763 48.7752 63.3446 48.8793 63.3866 49.0708C63.4286 49.2624 63.4522 49.4669 63.4571 49.6844C63.4621 49.9019 63.4553 50.0632 63.4368 50.1682C63.4016 50.3678 63.194 50.5316 62.814 50.6595C62.4359 50.777 62.0052 50.7931 61.522 50.7079C61.2384 50.6579 60.9622 50.5659 60.6934 50.4318C60.4369 50.2891 60.2466 50.1093 60.1223 49.8925C59.8375 49.9722 59.5879 50.0365 59.3735 50.0854C59.1591 50.1342 58.9388 50.1549 58.7126 50.1476C58.4951 50.1525 58.2341 50.1282 57.9294 50.0744ZM58.7578 48.1409C58.9153 48.1687 59.0871 48.1773 59.2731 48.1668C59.4591 48.1563 59.6726 48.1127 59.9135 48.036C59.9222 47.8642 59.9478 47.6575 59.9904 47.4159L60.3238 45.5251L59.3941 45.3612C59.016 45.2945 58.7268 45.3681 58.5266 45.5819C58.3283 45.7852 58.1856 46.1337 58.0986 46.6274C57.9393 47.5308 58.159 48.0353 58.7578 48.1409ZM66.899 51.656C66.6364 51.6097 66.375 51.5257 66.1149 51.404C65.8529 51.2928 65.6375 51.1628 65.4688 51.0139C65.3106 50.8669 65.2436 50.7251 65.2676 50.5885C65.2973 50.4204 65.3606 50.215 65.4576 49.9721C65.5459 49.7169 65.6487 49.5022 65.7661 49.3279C65.8853 49.1432 65.9975 49.06 66.1025 49.0786C66.1971 49.0952 66.2879 49.1329 66.375 49.1916C66.464 49.2398 66.582 49.2768 66.7291 49.3028C67.0022 49.3509 67.2034 49.316 67.3325 49.1979C67.474 49.0713 67.5771 48.8241 67.6419 48.4564L68.9394 41.0979C68.9728 40.9089 69.0828 40.7766 69.2693 40.7012C69.4664 40.6276 69.7593 40.6251 70.148 40.6937L70.5734 40.7687C70.9621 40.8372 71.2365 40.9397 71.3965 41.0763C71.5566 41.2128 71.6199 41.3756 71.5866 41.5647L70.3169 48.7656C70.1113 49.9316 69.7345 50.7479 69.1865 51.2145C68.649 51.683 67.8865 51.8301 66.899 51.656ZM74.0103 52.9099C72.8969 52.7136 72.1161 52.1968 71.668 51.3596C71.2304 50.5243 71.132 49.4238 71.3728 48.0582C71.6154 46.6821 72.0843 45.6817 72.7793 45.0569C73.4744 44.4321 74.3839 44.2188 75.5079 44.417C76.6319 44.6151 77.4136 45.1267 77.853 45.9515C78.303 46.7782 78.4066 47.8796 78.164 49.2557C77.9232 50.6213 77.4491 51.6208 76.7417 52.2543C76.0448 52.8896 75.1343 53.1081 74.0103 52.9099ZM74.3956 50.817C74.6898 50.8689 74.9162 50.7518 75.075 50.4657C75.2442 50.1814 75.402 49.6244 75.5484 48.7945C75.6928 47.9751 75.7341 47.4029 75.6723 47.0779C75.621 46.7548 75.4483 46.5673 75.1541 46.5154C74.8495 46.4617 74.6125 46.577 74.4433 46.8612C74.2845 47.1473 74.1329 47.7001 73.9884 48.5194C73.8421 49.3493 73.7946 49.9258 73.8459 50.249C73.9078 50.574 74.091 50.7633 74.3956 50.817ZM80.2458 54.0094C79.521 53.8816 79.0093 53.5585 78.7108 53.0401C78.4246 52.5131 78.3491 51.8662 78.4843 51.0993C78.5362 50.8052 78.6338 50.4975 78.7771 50.1761C78.9204 49.8548 79.1493 49.5702 79.4638 49.3224C79.7783 49.0746 80.2095 48.9015 80.7576 48.8032C81.3162 48.7067 82.0262 48.7344 82.8875 48.8863L82.9375 48.6027C83.0283 48.088 82.7848 47.7797 82.2071 47.6778C81.8499 47.6148 81.5178 47.5942 81.2107 47.6158C80.9054 47.627 80.6413 47.6508 80.4182 47.6873C80.1952 47.7238 80.0364 47.7337 79.9418 47.717C79.8263 47.6967 79.7484 47.5855 79.7082 47.3834C79.668 47.1814 79.6473 46.9611 79.646 46.7226C79.6553 46.4859 79.6719 46.2993 79.696 46.1627C79.7182 46.0367 79.8341 45.9325 80.0435 45.8503C80.253 45.7681 80.5131 45.7057 80.8239 45.663C81.1347 45.6203 81.4576 45.6014 81.7925 45.6063C82.1274 45.6112 82.4419 45.6396 82.736 45.6915C83.5659 45.8378 84.1968 46.0682 84.6287 46.3826C85.0712 46.6989 85.3509 47.0786 85.4677 47.5216C85.5951 47.9665 85.6115 48.4568 85.517 48.9925L85.0003 51.9233C84.9151 52.4065 84.8598 52.7813 84.8345 53.0476C84.8197 53.3158 84.8099 53.5253 84.8049 53.676C84.8124 53.8182 84.8059 53.947 84.7855 54.0625C84.7633 54.1886 84.6765 54.2816 84.5251 54.3416C84.3861 54.3929 84.2122 54.4272 84.0033 54.4445C83.7963 54.4513 83.5912 54.4477 83.3879 54.4335C83.1864 54.4088 83.0227 54.3853 82.8966 54.3631C82.6235 54.3149 82.4604 54.2266 82.4072 54.0981C82.3541 53.9696 82.3318 53.7274 82.3404 53.3714C82.1705 53.5365 81.9076 53.7067 81.5517 53.8823C81.1958 54.0578 80.7605 54.1002 80.2458 54.0094ZM81.596 52.2491C81.9216 52.3065 82.166 52.2413 82.3291 52.0535L82.6319 50.336C82.1487 50.2508 81.7792 50.2885 81.5234 50.4492C81.2781 50.6117 81.124 50.8716 81.061 51.2287C80.9554 51.8275 81.1338 52.1676 81.596 52.2491ZM81.0786 44.5869C80.9526 44.5647 80.8006 44.5054 80.6226 44.409C80.4551 44.3145 80.3834 44.1989 80.4075 44.0624C80.4205 43.9889 80.4458 43.9067 80.4835 43.8158C80.5335 43.7163 80.5799 43.6379 80.6225 43.5804C81.0481 42.8864 81.6181 42.6024 82.3324 42.7284C82.616 42.7784 82.8923 42.8704 83.1611 43.0045C83.4404 43.1404 83.6925 43.2769 83.9174 43.414C84.1547 43.5425 84.3417 43.6188 84.4782 43.6429C84.6148 43.667 84.7325 43.6444 84.8313 43.5752C84.9302 43.5059 85.0176 43.4401 85.0936 43.3777C85.1715 43.3048 85.2629 43.2776 85.3679 43.2961C85.494 43.3183 85.6309 43.402 85.7786 43.5472C85.9368 43.6943 86.0048 43.8308 85.9825 43.9569C85.9696 44.0304 85.9016 44.1701 85.7787 44.3758C85.6008 44.6477 85.3586 44.8542 85.0521 44.9951C84.7457 45.136 84.4296 45.1778 84.104 45.1203C83.8308 45.0722 83.5599 44.9811 83.2911 44.847C83.0223 44.713 82.7692 44.5817 82.5319 44.4532C82.3051 44.3266 82.1077 44.2484 81.9396 44.2188C81.7926 44.1929 81.6696 44.2145 81.5708 44.2837C81.4824 44.3548 81.3993 44.4268 81.3215 44.4997C81.2541 44.5745 81.1732 44.6036 81.0786 44.5869ZM88.7363 55.5065C87.6228 55.3102 86.842 54.7934 86.3939 53.9562C85.9563 53.1209 85.8579 52.0204 86.0987 50.6548C86.3414 49.2787 86.8102 48.2782 87.5053 47.6535C88.2003 47.0287 89.1098 46.8154 90.2338 47.0135C91.3578 47.2117 92.1396 47.7232 92.579 48.5481C93.0289 49.3748 93.1326 50.4762 92.89 51.8523C92.6492 53.2179 92.1751 54.2174 91.4677 54.8509C90.7707 55.4862 89.8603 55.7047 88.7363 55.5065ZM89.1216 53.4136C89.4157 53.4655 89.6422 53.3484 89.8009 53.0623C89.9702 52.778 90.128 52.2209 90.2743 51.3911C90.4188 50.5717 90.4601 49.9995 90.3983 49.6745C90.3469 49.3514 90.1742 49.1639 89.8801 49.112C89.5754 49.0583 89.3385 49.1735 89.1692 49.4578C89.0105 49.7439 88.8588 50.2967 88.7144 51.116C88.568 51.9459 88.5205 52.5224 88.5719 52.8455C88.6337 53.1706 88.8169 53.3599 89.1216 53.4136Z" fill="black"/>
</svg>
