<svg viewBox="0 0 34 28" fill="none" xmlns="http://www.w3.org/2000/svg">
<path d="M17 0.666672C18.425 0.666672 19.8867 0.703339 21.3033 0.763339L22.9767 0.843338L24.5783 0.938339L26.0783 1.04001L27.4483 1.14667C28.9353 1.25982 30.3347 1.89406 31.3999 2.93767C32.4652 3.98129 33.128 5.36733 33.2717 6.85167L33.3383 7.56L33.4633 9.07667C33.58 10.6483 33.6667 12.3617 33.6667 14C33.6667 15.6383 33.58 17.3517 33.4633 18.9233L33.3383 20.44L33.2717 21.1483C33.128 22.6329 32.4649 24.0192 31.3993 25.0628C30.3337 26.1065 28.9339 26.7406 27.4467 26.8533L26.08 26.9583L24.58 27.0617L22.9767 27.1567L21.3033 27.2367C19.8697 27.2988 18.435 27.331 17 27.3333C15.565 27.331 14.1303 27.2988 12.6967 27.2367L11.0233 27.1567L9.42167 27.0617L7.92167 26.9583L6.55167 26.8533C5.06469 26.7402 3.66533 26.1059 2.60007 25.0623C1.53481 24.0187 0.871985 22.6327 0.728334 21.1483L0.661667 20.44L0.536667 18.9233C0.409722 17.2852 0.3419 15.643 0.333334 14C0.333334 12.3617 0.420001 10.6483 0.536667 9.07667L0.661667 7.56L0.728334 6.85167C0.871929 5.36759 1.53452 3.98176 2.59944 2.93818C3.66436 1.8946 5.06332 1.2602 6.55 1.14667L7.91833 1.04001L9.41833 0.938339L11.0217 0.843338L12.695 0.763339C14.1292 0.701217 15.5645 0.668988 17 0.666672ZM17 4.00001C15.625 4.00001 14.21 4.03667 12.8333 4.09334L11.2033 4.17167L9.63833 4.26334L8.16833 4.36334L6.82167 4.46834C6.11366 4.5179 5.44615 4.81688 4.93777 5.31214C4.42939 5.8074 4.11306 6.46687 4.045 7.17334C3.85 9.18834 3.66667 11.6967 3.66667 14C3.66667 16.3033 3.85 18.8117 4.045 20.8267C4.18667 22.28 5.34 23.41 6.82167 23.5317L8.16833 23.635L9.63833 23.735L11.2033 23.8283L12.8333 23.9067C14.21 23.9633 15.625 24 17 24C18.375 24 19.79 23.9633 21.1667 23.9067L22.7967 23.8283L24.3617 23.7367L25.8317 23.6367L27.1783 23.5317C27.8863 23.4821 28.5539 23.1831 29.0622 22.6879C29.5706 22.1926 29.8869 21.5331 29.955 20.8267C30.15 18.8117 30.3333 16.3033 30.3333 14C30.3333 11.6967 30.15 9.18834 29.955 7.17334C29.8869 6.46687 29.5706 5.8074 29.0622 5.31214C28.5539 4.81688 27.8863 4.5179 27.1783 4.46834L25.8317 4.365L24.3617 4.265L22.7967 4.17167L21.1667 4.09334C19.7786 4.03376 18.3894 4.00264 17 4.00001ZM13.6667 9.95834C13.6666 9.79544 13.7062 9.63499 13.7823 9.49093C13.8583 9.34687 13.9684 9.22356 14.1029 9.13173C14.2375 9.0399 14.3924 8.98233 14.5543 8.96402C14.7161 8.94571 14.88 8.96721 15.0317 9.02667L15.1667 9.09334L22.1667 13.1333C22.3061 13.2138 22.424 13.3266 22.5104 13.4624C22.5969 13.5981 22.6493 13.7528 22.6632 13.9131C22.6771 14.0734 22.6521 14.2347 22.5903 14.3833C22.5285 14.5319 22.4318 14.6634 22.3083 14.7667L22.1667 14.8667L15.1667 18.9083C15.0256 18.99 14.8667 19.036 14.7038 19.0422C14.5409 19.0485 14.379 19.0148 14.2321 18.9441C14.0852 18.8735 13.9578 18.768 13.861 18.6368C13.7642 18.5057 13.7009 18.3529 13.6767 18.1917L13.6667 18.0417V9.95834Z" fill="white"/>
</svg>
