<svg viewBox="0 0 34 34" fill="none" xmlns="http://www.w3.org/2000/svg">
<path d="M10 0.333328H24C29.3333 0.333328 33.6667 4.66666 33.6667 10V24C33.6667 26.5638 32.6482 29.0225 30.8354 30.8354C29.0225 32.6482 26.5638 33.6667 24 33.6667H10C4.66667 33.6667 0.333332 29.3333 0.333332 24V10C0.333332 7.43624 1.35178 4.97748 3.16463 3.16463C4.97748 1.35178 7.43624 0.333328 10 0.333328ZM9.66667 3.66666C8.07537 3.66666 6.54924 4.2988 5.42402 5.42402C4.29881 6.54924 3.66667 8.07536 3.66667 9.66666V24.3333C3.66667 27.65 6.35 30.3333 9.66667 30.3333H24.3333C25.9246 30.3333 27.4508 29.7012 28.576 28.576C29.7012 27.4508 30.3333 25.9246 30.3333 24.3333V9.66666C30.3333 6.34999 27.65 3.66666 24.3333 3.66666H9.66667ZM25.75 6.16666C26.3025 6.16666 26.8324 6.38615 27.2231 6.77686C27.6138 7.16756 27.8333 7.69746 27.8333 8.24999C27.8333 8.80253 27.6138 9.33243 27.2231 9.72313C26.8324 10.1138 26.3025 10.3333 25.75 10.3333C25.1975 10.3333 24.6676 10.1138 24.2769 9.72313C23.8862 9.33243 23.6667 8.80253 23.6667 8.24999C23.6667 7.69746 23.8862 7.16756 24.2769 6.77686C24.6676 6.38615 25.1975 6.16666 25.75 6.16666ZM17 8.66666C19.2101 8.66666 21.3298 9.54463 22.8926 11.1074C24.4554 12.6702 25.3333 14.7899 25.3333 17C25.3333 19.2101 24.4554 21.3297 22.8926 22.8926C21.3298 24.4554 19.2101 25.3333 17 25.3333C14.7899 25.3333 12.6702 24.4554 11.1074 22.8926C9.54464 21.3297 8.66667 19.2101 8.66667 17C8.66667 14.7899 9.54464 12.6702 11.1074 11.1074C12.6702 9.54463 14.7899 8.66666 17 8.66666ZM17 12C15.6739 12 14.4021 12.5268 13.4645 13.4645C12.5268 14.4021 12 15.6739 12 17C12 18.3261 12.5268 19.5978 13.4645 20.5355C14.4021 21.4732 15.6739 22 17 22C18.3261 22 19.5979 21.4732 20.5355 20.5355C21.4732 19.5978 22 18.3261 22 17C22 15.6739 21.4732 14.4021 20.5355 13.4645C19.5979 12.5268 18.3261 12 17 12Z" fill="white"/>
</svg>
